<svg class="w-6 h-6" width="24" height="24" viewBox="0 0 24 24" fill="none" xmlns="http://www.w3.org/2000/svg"><path d="M21 12C21 7.02944 16.9706 3 12 3C7.02944 3 3 7.02944 3 12C3 16.9706 7.02944 21 12 21C16.9706 21 21 16.9706 21 12ZM23 12C23 18.0751 18.0751 23 12 23C5.92487 23 1 18.0751 1 12C1 5.92487 5.92487 1 12 1C18.0751 1 23 5.92487 23 12Z" fill="#686583" style="fill-opacity:1;"/><path d="M15 12C15 10.3431 13.6569 9 12 9C10.3431 9 9 10.3431 9 12C9 13.6569 10.3431 15 12 15C13.6569 15 15 13.6569 15 12ZM17 12C17 14.7614 14.7614 17 12 17C9.23858 17 7 14.7614 7 12C7 9.23858 9.23858 7 12 7C14.7614 7 17 9.23858 17 12Z" fill="#686583" style="fill-opacity:1;"/><path d="M21.1699 7L21.2725 7.00488C21.7766 7.05618 22.1699 7.4823 22.1699 8C22.1699 8.5177 21.7766 8.94382 21.2725 8.99512L21.1699 9H12C11.4477 9 11 8.55228 11 8C11 7.44772 11.4477 7 12 7H21.1699Z" fill="#686583" style="fill-opacity:1;"/><path d="M3.45 5.19379C3.89835 4.93498 4.46406 5.06289 4.76054 5.47406L4.81621 5.56L9.40605 13.4995L9.45293 13.5903C9.66099 14.0524 9.48889 14.6064 9.04082 14.8657C8.59262 15.1248 8.027 14.9972 7.73027 14.5864L7.67461 14.5004L3.08379 6.56L3.03789 6.46918C2.82988 6.007 3.00175 5.45292 3.45 5.19379Z" fill="#686583" style="fill-opacity:1;"/><path d="M14.5939 13.5C14.8699 13.0218 15.4818 12.8579 15.9601 13.1338C16.4382 13.4098 16.6022 14.0217 16.3263 14.5L11.7462 22.4394L11.6905 22.5254C11.3943 22.9367 10.8285 23.0654 10.38 22.8066C9.90168 22.5307 9.7379 21.9188 10.0138 21.4404L14.5939 13.5Z" fill="#686583" style="fill-opacity:1;"/></svg>